<svg xmlns="http://www.w3.org/2000/svg" xml:space="preserve" viewBox="0 0 2681.652 603.134"><defs><clipPath id="a" clipPathUnits="userSpaceOnUse"><path d="M0 2267.72h2267.72V0H0Z"/></clipPath></defs><path d="M842.732 1322.54h41.746v-231.951h-41.746z" style="fill:#6b7d87;fill-opacity:1;fill-rule:nonzero;stroke:none" transform="matrix(1.33333 0 0 -1.33333 -170.987 1813.38)"/><g clip-path="url(#a)" transform="matrix(1.33333 0 0 -1.33333 -170.987 1813.38)"><path d="M0 0c-24.796 0-41.745-12.241-48.336-34.526h96.358C42.686-12.241 25.737 0 0 0m87.571-71.25H-47.08c5.02-21.028 23.226-34.211 48.022-34.211 17.263 0 27.621 4.708 38.291 17.263h45.512c-11.613-35.78-47.707-55.554-82.861-55.554-53.044 0-94.162 39.546-94.162 90.394 0 51.161 40.489 91.65 91.651 91.65 51.789 0 89.765-39.549 89.765-93.535 0-6.276-.314-10.042-1.567-16.007" style="fill:#6b7d87;fill-opacity:1;fill-rule:nonzero;stroke:none" transform="translate(989.71 1230.262)"/><path d="M0 0v95.416c0 34.84-13.182 44.257-32.641 44.257-23.226 0-35.154-12.555-35.154-53.985V0h-41.746v95.416c0 34.212-11.927 44.257-33.896 44.257-24.169 0-33.898-12.87-33.898-53.985V0h-41.747v173.885h38.294v-16.321c12.242 14.75 24.796 20.401 45.198 20.401 23.855 0 39.235-8.16 51.161-26.992 14.123 18.832 31.388 26.992 55.867 26.992 45.827 0 70.309-25.425 70.309-77.527V0Z" style="fill:#6b7d87;fill-opacity:1;fill-rule:nonzero;stroke:none" transform="translate(1311.392 1090.589)"/><path d="M0 0c-24.795 0-41.743-12.241-48.336-34.526h96.359C42.687-12.241 25.736 0 0 0m87.569-71.25H-47.08c5.02-21.028 23.226-34.211 48.022-34.211 17.261 0 27.62 4.708 38.294 17.263h45.508c-11.612-35.78-47.706-55.554-82.859-55.554-53.047 0-94.163 39.546-94.163 90.394 0 51.161 40.49 91.65 91.649 91.65 51.789 0 89.77-39.549 89.77-93.535 0-6.276-.317-10.042-1.572-16.007" style="fill:#6b7d87;fill-opacity:1;fill-rule:nonzero;stroke:none" transform="translate(1456.43 1230.262)"/><path d="M0 0v85.059c0 46.455-12.556 54.614-33.272 54.614-13.181 0-24.165-5.65-30.758-16.008-5.335-8.474-6.905-18.519-6.905-41.744V0h-41.745v173.885h38.609v-16.637c15.375 14.754 29.188 20.717 48.965 20.717 24.165 0 43-8.787 54.296-25.111 9.415-13.495 12.553-28.559 12.553-59.634V0Z" style="fill:#6b7d87;fill-opacity:1;fill-rule:nonzero;stroke:none" transform="translate(1671.71 1090.589)"/><path d="M0 0v-135.907h-41.744V0h-20.402v37.978h20.402v58.066H0V37.978h25.11V0Z" style="fill:#6b7d87;fill-opacity:1;fill-rule:nonzero;stroke:none" transform="translate(1783.44 1226.496)"/><path d="M0 0c-29.816 0-50.848-22.599-50.848-54.299 0-30.446 21.032-51.162 51.477-51.162 31.701 0 50.533 22.599 50.533 51.477C51.162-22.285 29.817 0 0 0m52.418-139.673v22.601c-16.638-18.831-33.272-26.68-57.753-26.68-50.847 0-87.57 37.978-87.57 90.394 0 53.045 37.036 91.65 88.509 91.65 25.113 0 42.375-8.16 56.814-27.306v23.226h38.291v-173.885z" style="fill:#6b7d87;fill-opacity:1;fill-rule:nonzero;stroke:none" transform="translate(1898.84 1230.262)"/><path d="M2007.718 1322.54h41.745v-231.951h-41.745z" style="fill:#6b7d87;fill-opacity:1;fill-rule:nonzero;stroke:none"/><path d="M0 0h-52.928v9.808h43.544v16.187H0Z" style="fill:#6b7d87;fill-opacity:1;fill-rule:nonzero;stroke:none" transform="translate(2135.559 1090.589)"/><path d="M0 0h-52.928v9.811h43.544v16.186H0Z" style="fill:#6b7d87;fill-opacity:1;fill-rule:nonzero;stroke:none" transform="translate(2135.559 1130.37)"/><path d="M0 0c0-15.471-12.315-27.862-27.572-27.862-14.968 0-27.214 12.245-27.214 27.216 0 10.884 5.871 20.413 16.113 25.067V13.462c-4.654-3.583-6.66-7.736-6.66-13.894 0-10.098 7.876-17.548 17.834-17.548 9.882 0 18.048 8.023 18.048 17.759 0 5.088-1.721 8.812-6.231 13.11v11.532C-6.013 20.267 0 10.811 0 0" style="fill:#6b7d87;fill-opacity:1;fill-rule:nonzero;stroke:none" transform="translate(2139.48 1192.225)"/><path d="m0 0 25.359-45.873h.501L52.463 0h6.715L28.595-52.961v-34.068H17.281v32.946L-12.803 0Z" style="fill:#ff8004;fill-opacity:1;fill-rule:nonzero;stroke:none" transform="translate(846.993 1062.048)"/><path d="M0 0h.498l40.28 74.718h8.577v-87.03H38.041v70.494h-.497L-1.742-13.799h-2.236l-38.416 72.478h-.497v-70.991h-5.471v87.03h8.454z" style="fill:#ff8004;fill-opacity:1;fill-rule:nonzero;stroke:none" transform="translate(1066.685 987.33)"/><path d="M0 0h.498l40.278 74.718h8.58v-87.03H38.041v70.494h-.495L-1.741-13.799h-2.237l-38.418 72.478h-.495v-70.991h-5.473v87.03h8.456z" style="fill:#ff8004;fill-opacity:1;fill-rule:nonzero;stroke:none" transform="translate(1287.74 987.33)"/><path d="M0 0v-6.837h-44.883v-31.204h38.541v-5.722h-38.541v-36.425H0v-6.841h-56.194V0Z" style="fill:#ff8004;fill-opacity:1;fill-rule:nonzero;stroke:none" transform="translate(1516.63 1062.048)"/><path d="M0 0v80.192h-33.317v6.837h77.949v-6.837H11.313V0Z" style="fill:#ff8004;fill-opacity:1;fill-rule:nonzero;stroke:none" transform="translate(1656.502 975.019)"/><path d="M0 0h12.854c3.325 0 6.26.578 8.797 1.739 2.537 1.16 4.678 2.673 6.427 4.536 1.744 1.868 3.056 3.936 3.929 6.217.874 2.279 1.311 4.538 1.311 6.774 0 2.655-.479 5.099-1.435 7.338a16.03 16.03 0 0 1-4.181 5.781c-1.828 1.614-4.014 2.877-6.554 3.792-2.535.911-5.384 1.365-8.544 1.365H0Zm16.906 43.014c5.555 0 10.152-.768 13.803-2.302 3.645-1.532 6.526-3.44 8.64-5.718 2.113-2.278 3.607-4.744 4.475-7.398.87-2.653 1.306-5.097 1.306-7.332 0-2.489-.412-5.037-1.234-7.646-.817-2.612-2.129-5.039-3.933-7.274-1.811-2.239-4.134-4.105-6.978-5.595-2.844-1.49-6.256-2.361-10.234-2.608v-.5l1.244-.622a9.011 9.011 0 0 0 2.549-1.864c.702-.745 1.615-1.95 2.736-3.604 1.118-1.66 2.622-4.002 4.517-7.025 1.891-3.029 4.562-7.067 8.009-12.122a70.796 70.796 0 0 1 3.331-4.662c1.071-1.368 2.187-2.53 3.35-3.48a13.063 13.063 0 0 1 3.732-2.178c1.322-.497 2.855-.742 4.596-.742a12.764 12.764 0 0 1 2.489.245v-4.603c-1.163-.658-2.325-1.07-3.482-1.239-1.162-.168-2.654-.248-4.475-.248-2.487 0-4.619.329-6.39.993a17.106 17.106 0 0 0-4.753 2.674c-1.394 1.12-2.686 2.463-3.876 4.039a86.192 86.192 0 0 0-3.631 5.224l-9.856 14.547a286.081 286.081 0 0 1-3.87 5.84c-1.085 1.575-2.248 2.86-3.495 3.855a11.474 11.474 0 0 1-4.181 2.114c-1.54.412-3.475.621-5.804.621H0v-38.42h-11.313v87.03z" style="fill:#ff8004;fill-opacity:1;fill-rule:nonzero;stroke:none" transform="translate(1824.04 1019.034)"/><path d="m0 0 25.359-45.873h.498L52.461 0h6.714L28.593-52.961v-34.068H17.278v32.946L-12.806 0Z" style="fill:#ff8004;fill-opacity:1;fill-rule:nonzero;stroke:none" transform="translate(1991.093 1062.048)"/><path d="M0 0c-24.797 0-41.748-12.241-48.337-34.526h96.358C42.684-12.241 25.736 0 0 0m87.568-71.25h-134.65c5.021-21.028 23.226-34.211 48.022-34.211 17.262 0 27.62 4.708 38.29 17.263h45.514c-11.614-35.78-47.71-55.554-82.863-55.554-53.042 0-94.159 39.546-94.159 90.394 0 51.161 40.487 91.65 91.648 91.65 51.791 0 89.768-39.549 89.768-93.535 0-6.276-.314-10.042-1.57-16.007" style="fill:#6b7d87;fill-opacity:1;fill-rule:nonzero;stroke:none" transform="translate(741.043 1230.262)"/><path d="M0 0c.083-1.409.414-3.127.994-5.157.579-2.034 1.698-4.002 3.355-5.908 1.659-1.906 4.062-3.541 7.214-4.911 3.147-1.367 7.334-2.05 12.556-2.05 6.546 0 11.788 1.245 15.726 3.73 3.937 2.485 5.905 6.423 5.905 11.811 0 4.308-1.244 7.749-3.729 10.317-2.487 2.568-5.615 4.746-9.385 6.527-3.772 1.781-7.854 3.379-12.248 4.789-4.392 1.407-8.474 3.107-12.246 5.096-3.773 1.988-6.899 4.474-9.387 7.459-2.485 2.984-3.726 6.919-3.726 11.811 0 3.728.765 7.045 2.301 9.947 1.534 2.898 3.609 5.304 6.223 7.208 2.617 1.907 5.646 3.36 9.092 4.352 3.444.996 7.076 1.493 10.896 1.493 3.651 0 7.157-.438 10.517-1.307 3.36-.871 6.369-2.156 9.026-3.853 2.656-1.697 4.855-3.771 6.601-6.216 1.742-2.446 2.861-5.203 3.362-8.27h-8.47c-.665 4.894-2.887 8.475-6.664 10.755-3.777 2.281-8.361 3.42-13.759 3.42-3.238 0-6.102-.394-8.594-1.183-2.492-.787-4.588-1.823-6.29-3.106-1.703-1.285-2.991-2.798-3.861-4.538a12.344 12.344 0 0 1-1.307-5.595c0-3.563 1.288-6.421 3.861-8.578 2.576-2.157 5.797-4.061 9.659-5.719 3.865-1.656 8.062-3.232 12.587-4.722 4.527-1.496 8.724-3.342 12.588-5.535 3.865-2.197 7.082-4.932 9.659-8.203 2.576-3.276 3.864-7.484 3.864-12.619 0-3.73-.75-7.13-2.243-10.196-1.499-3.067-3.615-5.678-6.355-7.83-2.741-2.157-6.041-3.815-9.901-4.974-3.862-1.162-8.201-1.74-13.018-1.74-4.733 0-9.091.556-13.078 1.677-3.987 1.119-7.454 2.693-10.402 4.726-2.948 2.029-5.274 4.493-6.976 7.396C-7.354-6.795-8.289-3.564-8.454 0z" style="fill:#ff8004;fill-opacity:1;fill-rule:nonzero;stroke:none" transform="translate(674.434 997.026)"/><path d="M0 0c29.457-29.458 43.57-68.455 42.358-107.059a462.354 462.354 0 0 0-11.59-2.634c-8.764-1.879-18.407-3.574-28.802-5.052C7.151-78.658-4.13-40.659-31.885-12.902c-22.082 22.08-50.636 33.729-79.559 34.968.566 2.99 1.149 5.897 1.755 8.708l-.028.008a490.523 490.523 0 0 0 2.634 11.575C-68.473 43.58-29.465 29.466 0 0" style="fill:#6b7d87;fill-opacity:1;fill-rule:nonzero;stroke:none" transform="translate(456.894 1236.335)"/><path d="M0 0c-7.042-18.668-18.077-36.166-33.102-51.189a144.3 144.3 0 0 0-13.276-11.75c-.705.424-1.423.853-2.145 1.295-9.404 5.713-19.711 12.753-30.653 20.942a120.564 120.564 0 0 1 14.189 12.149A120.12 120.12 0 0 1-47.109-5.745C-30.325-4.225-14.526-2.293 0 0" style="fill:#6b7d87;fill-opacity:1;fill-rule:nonzero;stroke:none" transform="translate(489.994 1082.571)"/><path d="M0 0a145.453 145.453 0 0 0-49.924-7.213c-2.293 8.865-4.375 18.923-6.201 29.976a119.973 119.973 0 0 1 23.545 3.018C-21.357 16.399-10.441 7.774 0 0" style="fill:#6b7d87;fill-opacity:1;fill-rule:nonzero;stroke:none" transform="translate(399.873 996.23)"/><path d="M0 0c-18.666 7.045-36.169 18.077-51.191 33.101-15.022 15.021-26.054 32.521-33.102 51.189a627.575 627.575 0 0 1 16.943-2.429c5.246-9.362 11.85-18.16 19.809-26.119C-34.732 42.933-19.744 33.639-3.77 27.845A668.857 668.857 0 0 1 0 0" style="fill:#6b7d87;fill-opacity:1;fill-rule:nonzero;stroke:none" transform="translate(303.13 998.281)"/><path d="M0 0a135.434 135.434 0 0 0 6.72 46.482 531.952 531.952 0 0 1 7.128-9.385 112.1 112.1 0 0 1-3.095-39.633C6.988-1.726 3.401-.879 0 0" style="fill:#6b7d87;fill-opacity:1;fill-rule:nonzero;stroke:none" transform="translate(209.39 1130.378)"/><path d="M0 0a146.39 146.39 0 0 0 11.748 13.278C26.769 28.3 44.273 39.332 62.94 46.38a636.397 636.397 0 0 1-2.528-17.661C43.973 22.962 28.537 13.514 15.4.376A121.268 121.268 0 0 1 6.204-9.946 313.287 313.287 0 0 0 1.296-2.15C.859-1.426.43-.708 0 0" style="fill:#6b7d87;fill-opacity:1;fill-rule:nonzero;stroke:none" transform="translate(240.19 1223.062)"/><path d="M0 0a61.161 61.161 0 0 0 10.426 8.351c-50.697 58.279-79.12 108.672-66.167 121.625 7.706 7.707 28.658.766 56.63-16.784-43.338 30.764-76.845 44.816-87.769 33.894-15.767-15.77 20.528-78.632 84.026-150.17A60.221 60.221 0 0 0 0 0" style="fill:#ff8004;fill-opacity:1;fill-rule:nonzero;stroke:none" transform="translate(272.208 1137.544)"/><path d="M0 0c2.781 0 5.531-.199 8.241-.564 2.233 96.225 19.729 171.161 40.973 171.16 10.891 0 20.803-19.719 28.176-51.907-8.891 52.392-22.657 86.025-38.1 86.028C13.992 204.712-6.787 114.479-9.04-.667-6.075-.226-3.054 0 0 0" style="fill:#ff8004;fill-opacity:1;fill-rule:nonzero;stroke:none" transform="translate(315.121 1155.318)"/><path d="M0 0c-15.048 0-28.213 37.591-35.408 93.715a61.28 61.28 0 0 0-13.806-1.584c-1.433 0-2.855.067-4.269.167C-45.571 17.42-29.037-34.126-9.918-34.123 5.525-34.126 19.287-.49 28.176 51.904 20.805 19.716 10.896-.005 0 0" style="fill:#ff8004;fill-opacity:1;fill-rule:nonzero;stroke:none" transform="translate(364.335 941.808)"/><path d="M0 0c-56.1 7.195-93.676 20.359-93.676 35.401 0 10.897 19.722 20.804 51.91 28.176-52.397-8.889-86.03-22.65-86.031-38.093.001-19.117 51.528-35.653 126.39-43.564A61.126 61.126 0 0 0 0 0" style="fill:#ff8004;fill-opacity:1;fill-rule:nonzero;stroke:none" transform="translate(256.038 1108.376)"/><path d="M0 0c32.188-7.373 51.906-17.279 51.909-28.177-.003-21.249-74.98-38.751-171.245-40.975a61.222 61.222 0 0 0-.13-17.28c115.2 2.243 205.493 23.031 205.493 48.334C86.027-22.652 52.396-8.889 0 0" style="fill:#ff8004;fill-opacity:1;fill-rule:nonzero;stroke:none" transform="translate(494.561 1171.956)"/><path d="M0 0c-12.957-12.957-63.391 15.496-121.697 66.233a60.647 60.647 0 0 0-8.341-10.431 61.831 61.831 0 0 0-3.081-2.859C-61.556-10.593 1.341-46.909 17.118-31.135c10.915 10.916-3.139 44.431-33.896 87.766C.768 28.66 7.708 7.709 0 0" style="fill:#ff8004;fill-opacity:1;fill-rule:nonzero;stroke:none" transform="translate(488.074 995.912)"/><path d="M0 0c.568-9.936-2.936-20.059-10.524-27.647-7.061-7.061-16.312-10.589-25.567-10.589-9.255 0-18.507 3.528-25.566 10.589-14.117 14.118-14.117 37.014 0 51.131 7.059 7.062 16.311 10.588 25.566 10.588.32 0 .642-.013.96-.023l6.175 12.423a49.546 49.546 0 0 1-7.135.514c-13.106 0-25.428-5.103-34.697-14.372-19.13-19.13-19.13-50.26-.001-69.392 9.268-9.268 21.592-14.372 34.698-14.372 13.106 0 25.429 5.104 34.696 14.372C10.017-25.367 14.617-9.692 12.419 5.164z" style="fill:#ff8004;fill-opacity:1;fill-rule:nonzero;stroke:none" transform="translate(351.212 1096.71)"/><path d="m0 0-5.035 17.424a1.853 1.853 0 0 1-1.633 1.339 1.859 1.859 0 0 1-1.847-1.036l-27.384-55.1a15.39 15.39 0 0 1-9.904.387c-8.193-2.42-12.867-11.019-10.444-19.207 2.41-8.193 11.012-12.875 19.206-10.456 8.194 2.421 12.867 11.025 10.453 19.213a15.154 15.154 0 0 1-1.398 3.276l55.685 23.153c.729.301 1.175.99 1.161 1.774-.026.791-.493 1.448-1.235 1.717l-17.036 6.191L30.968 7.732c.753.708.8 1.901.094 2.657l-8.037 8.583a1.865 1.865 0 0 1-2.643.09z" style="fill:#6b7d87;fill-opacity:1;fill-rule:evenodd;stroke:none" transform="translate(356.039 1145.978)"/><path d="M613 973.72h-5v349h5z" style="fill:#6b7d87;fill-opacity:1;fill-rule:nonzero;stroke:none"/></g></svg>